<svg viewBox="0 0 72.282 72.282" fill="none" xmlns="http://www.w3.org/2000/svg"><path fill="#FF69CA" d="m14.77 0 56.57 56.57-8.49 8.48-56.56-56.56z"/><path stroke="#000" d="m14.77.7 55.86 55.87-7.78 7.78-55.86-55.86z"/><path d="M71.33 8.48s-40.3 44.55-56.56 56.57c-16.27 12.02-8.49-8.49-8.49-8.49l56.57-56.56 8.48 8.48Z" fill="#92CCFE" fill-rule="evenodd"/><path d="M14.77 65.05c16.26-12.02 56.56-56.57 56.56-56.57l-8.48-8.48-56.57 56.56s-7.78 20.51 8.49 8.49Zm-7.63-7.93a40.37 40.37 0 0 0-1.48 5.47 15.61 15.61 0 0 0-.24 2.7c.02.82.15 1.44.39 1.87.1.19.22.33.37.44.14.1.33.17.55.21.28.04.62.02 1.02-.06a7.7 7.7 0 0 0 1.58-.53 26.53 26.53 0 0 0 4.84-2.98c3.69-2.72 8.89-7.33 15.6-13.82a731.75 731.75 0 0 0 18.66-18.85 1340.05 1340.05 0 0 0 21.52-23.06l-7.1-7.1-55.71 55.71Z" fill="#000" fill-rule="evenodd"/></svg>